<svg xmlns="http://www.w3.org/2000/svg" viewBox="0 0 64 64"><title>breath</title><g id="breath"><path d="M52.27,56.64V41.26a11.39,11.39,0,0,1,1.91-6.17s0,0,0,0A18.22,18.22,0,0,0,57,25.59a2.44,2.44,0,0,0,0-.27A18.31,18.31,0,0,0,43.27,7.58a19,19,0,0,0-2.71-.49A16.79,16.79,0,0,0,38.68,7l-.86,0a18.15,18.15,0,0,0-3.72.56c-.57.15-1.15.32-1.72.53A17.72,17.72,0,0,0,30,9.21c-.51.28-1,.59-1.52.92s-.95.69-1.4,1a18.82,18.82,0,0,0-2.48,2.49c-.37.44-.73.93-1.06,1.4l-.48.76h0c-.19.4-.37.82-.52,1.24A15,15,0,0,0,22,18.52a15.25,15.25,0,0,0-.49,3.84l-1.18,3.15-2.23,6a2.15,2.15,0,0,0-.05,1.31,2.09,2.09,0,0,0,2,1.39h3.12l.18,1.27.15,1.1h2.12a3,3,0,0,1,2.09,5,2.91,2.91,0,0,1-2.09.87H24.42l-.18,2a3.55,3.55,0,0,0,3.53,3.86h5.59v8.27Z"/><path d="M21,39H10a4,4,0,0,1,0-8,4.22,4.22,0,0,1,3.79,2.34l.1.21a1,1,0,0,1-1.78.9L12,34.24A2.22,2.22,0,0,0,10,33a2,2,0,0,0,0,4H21a1,1,0,0,1,0,2Z"/><path d="M13,49H12a4,4,0,0,1,0-8h9a1,1,0,0,1,0,2H12a2,2,0,0,0,0,4h1a1,1,0,0,1,0,2Z"/></g></svg>