<?xml version="1.0" encoding="UTF-8"?>
<!DOCTYPE svg PUBLIC "-//W3C//DTD SVG 1.1//EN" "http://www.w3.org/Graphics/SVG/1.1/DTD/svg11.dtd">
<!-- Creator: CorelDRAW -->
<svg xmlns="http://www.w3.org/2000/svg" xml:space="preserve" width="2048px" height="2048px" style="shape-rendering:geometricPrecision; text-rendering:geometricPrecision; image-rendering:optimizeQuality; fill-rule:evenodd; clip-rule:evenodd"
viewBox="0 0 2048 2048"
 xmlns:xlink="http://www.w3.org/1999/xlink">
 <defs>
  <style type="text/css">
   <![CDATA[
    .fil1 {fill:none}
    .fil0 {fill:#424242}
    .fil2 {fill:white}
   ]]>
  </style>
 </defs>
 <rect class="fil0" width="2048" height="2048"/>
 <g id="Layer_x0020_1">
  <metadata id="CorelCorpID_0Corel-Layer"/>
  <rect class="fil1" width="2048" height="2048"/>
  <rect class="fil1" x="255.999" y="255.999" width="1536" height="1536"/>
  <g id="_253992888">
   <rect id="_253992720" class="fil1" x="255.999" y="255.999" width="1536" height="1536"/>
   <path id="_253993152" class="fil2" d="M1564.53 719.193l-395.341 -272.968 62.8028 -179.332 -780.121 0 0 1525.11 1112.58 0c0,-357.638 0.0791339,-715.144 0.0791339,-1072.81zm-222.784 -463.193l-50.876 145.352 305.263 210.795 -254.387 -356.148zm-144.95 1169.63l-212.514 -212.53 -212.53 212.53 -117.509 -117.535 212.512 -212.504 -212.512 -212.54 117.509 -117.535 212.53 212.538 212.425 -212.538 117.527 117.535 -212.512 212.54 212.512 212.504 -117.438 117.535z"/>
  </g>
 </g>
</svg>
