<svg xmlns="http://www.w3.org/2000/svg" viewBox="0 0 24 24"><title>download file</title><g id="download_file" data-name="download file"><path d="M20,2.77A1,1,0,0,0,19,2H16a1,1,0,0,0,0,2h2.2l2.54,11H3.26L5.8,4H8A1,1,0,0,0,8,2H5a1,1,0,0,0-1,.77C.39,18.53,1,13.92,1,22a1,1,0,0,0,1,1H22a1,1,0,0,0,1-1C23,14.2,23.72,19,20,2.77ZM21,21H3V17H21Z"/><path d="M7.79,9.21l3.5,3.5a1,1,0,0,0,1.42,0l3.5-3.5a1,1,0,0,0-1.42-1.42L13,9.59V2a1,1,0,0,0-2,0V9.59L9.21,7.79A1,1,0,0,0,7.79,9.21Z"/><path d="M18,20a1,1,0,0,0,0-2A1,1,0,0,0,18,20Z"/><path d="M12,20h3a1,1,0,0,0,0-2H12A1,1,0,0,0,12,20Z"/></g></svg>