<svg xmlns="http://www.w3.org/2000/svg" viewBox="0 0 24 24"><title>8.Download</title><g id="_8.Download" data-name="8.Download"><path d="M17.5,20H17V18h.5a4.5,4.5,0,1,0-1.245-8.821l-1.33.383.054-1.383a1.881,1.881,0,0,1,.02-.2A4,4,0,0,0,7.075,7.26l-.13.7-.7.106a5,5,0,0,0-.91,9.652L4.667,19.6A7,7,0,0,1,5.275,6.223a6,6,0,0,1,11.646.8A6.5,6.5,0,1,1,17.5,20Z"/><polygon points="11 22.414 7.293 18.707 8.707 17.293 11 19.586 13.293 17.293 14.707 18.707 11 22.414"/><rect x="10" y="11" width="2" height="10"/></g></svg>